<svg width="49" height="48" viewBox="0 0 49 48" fill="none" xmlns="http://www.w3.org/2000/svg">
<path d="M24.4395 45.4791C39.3354 45.4791 46.779 35.4774 46.779 23.1396C46.779 10.8018 39.3354 0.800049 24.4395 0.800049C9.5435 0.800049 2.09998 10.8018 2.09998 23.1396C2.09998 35.4774 9.5435 45.4791 24.4395 45.4791Z" fill="#FFB02E"/>
<path d="M24.4393 39.0993C13.2687 39.0993 13.2687 27.9287 13.2687 27.9287H35.61C35.61 27.9287 35.61 39.0993 24.4393 39.0993Z" fill="#BB1D80"/>
<path d="M24.466 47.0785C32.4451 47.0785 32.2376 37.1845 32.4451 35.5089C32.6046 34.1525 31.8865 33.4663 31.1046 33.0035C30.3226 32.5407 27.9768 32.1099 24.466 32.1099C20.9553 32.1099 18.6254 32.5407 17.8275 33.0035C17.0296 33.4663 16.3115 34.1525 16.487 35.5089C16.6945 37.1845 16.487 47.0785 24.466 47.0785Z" fill="#00D26A"/>
<path d="M35.3866 30.2107C35.5302 29.4766 35.61 28.7107 35.61 27.9287C28.1735 27.9287 17.8008 27.9287 13.2687 27.9287C13.2687 28.7107 13.3485 29.4607 13.4921 30.2107H35.3866Z" fill="white"/>
<path d="M16.0633 7.18335C16.7242 7.18335 17.2601 7.7192 17.2601 8.3802V9.65686C19.0811 10.0265 20.4517 11.6365 20.4517 13.5666V13.9655C20.4517 14.6265 19.9159 15.1624 19.2549 15.1624C18.5939 15.1624 18.058 14.6265 18.058 13.9655V13.5666C18.058 12.6852 17.3436 11.9708 16.4622 11.9708H15.6643C14.783 11.9708 14.0685 12.6852 14.0685 13.5666V13.8939C14.0685 14.6988 14.6678 15.3776 15.4664 15.4774L16.9571 15.6638C18.9536 15.9134 20.4517 17.6105 20.4517 19.6225V19.9498C20.4517 21.8799 19.0811 23.4899 17.2601 23.8595V25.1362C17.2601 25.7971 16.7242 26.333 16.0633 26.333C15.4023 26.333 14.8664 25.7971 14.8664 25.1362V23.8595C13.0454 23.4899 11.6748 21.8799 11.6748 19.9498V19.5508C11.6748 18.8899 12.2107 18.354 12.8717 18.354C13.5327 18.354 14.0685 18.8899 14.0685 19.5508V19.9498C14.0685 20.8312 14.783 21.5456 15.6643 21.5456H16.4622C17.3436 21.5456 18.058 20.8312 18.058 19.9498V19.6225C18.058 18.8176 17.4588 18.1387 16.6601 18.039L15.1695 17.8526C13.173 17.603 11.6748 15.9059 11.6748 13.8939V13.5666C11.6748 11.6365 13.0454 10.0265 14.8664 9.65686V8.3802C14.8664 7.7192 15.4023 7.18335 16.0633 7.18335Z" fill="#402A32"/>
<path d="M32.8193 7.18335C33.4802 7.18335 34.0161 7.7192 34.0161 8.3802V9.65686C35.8371 10.0265 37.2077 11.6365 37.2077 13.5666V13.9655C37.2077 14.6265 36.6718 15.1624 36.0109 15.1624C35.3499 15.1624 34.814 14.6265 34.814 13.9655V13.5666C34.814 12.6852 34.0996 11.9708 33.2182 11.9708H32.4203C31.5389 11.9708 30.8245 12.6852 30.8245 13.5666V13.8939C30.8245 14.6988 31.4237 15.3776 32.2224 15.4774L33.7131 15.6638C35.7096 15.9134 37.2077 17.6105 37.2077 19.6225V19.9498C37.2077 21.8799 35.8371 23.4899 34.0161 23.8595V25.1362C34.0161 25.7971 33.4802 26.333 32.8193 26.333C32.1583 26.333 31.6224 25.7971 31.6224 25.1362V23.8595C29.8014 23.4899 28.4308 21.8799 28.4308 19.9498V19.5508C28.4308 18.8899 28.9667 18.354 29.6276 18.354C30.2886 18.354 30.8245 18.8899 30.8245 19.5508V19.9498C30.8245 20.8312 31.5389 21.5456 32.4203 21.5456H33.2182C34.0996 21.5456 34.814 20.8312 34.814 19.9498V19.6225C34.814 18.8176 34.2148 18.1387 33.4161 18.039L31.9254 17.8526C29.9289 17.603 28.4308 15.9059 28.4308 13.8939V13.5666C28.4308 11.6365 29.8014 10.0265 31.6224 9.65686V8.3802C31.6224 7.7192 32.1583 7.18335 32.8193 7.18335Z" fill="#402A32"/>
<path d="M25.2391 34.3121C25.2391 33.8715 24.8818 33.5142 24.4412 33.5142C24.0006 33.5142 23.6433 33.8715 23.6433 34.3121V35.11C23.6433 35.1444 23.6455 35.1784 23.6497 35.2116C22.7216 35.4993 22.0475 36.3646 22.0475 37.3873C22.0475 38.2499 22.5348 39.0384 23.3064 39.4241L24.8623 40.2022C25.0932 40.3176 25.2391 40.5536 25.2391 40.8116C25.2391 41.1881 24.934 41.4932 24.5575 41.4932H24.4412C24.0006 41.4932 23.6433 41.1359 23.6433 40.6953C23.6433 40.2547 23.286 39.8974 22.8454 39.8974C22.4048 39.8974 22.0475 40.2547 22.0475 40.6953C22.0475 41.7417 22.7188 42.6312 23.6541 42.9565C23.647 42.9996 23.6433 43.0438 23.6433 43.089V43.8869C23.6433 44.3275 24.0006 44.6848 24.4412 44.6848C24.8818 44.6848 25.2391 44.3275 25.2391 43.8869V43.089C25.2391 43.0545 25.2369 43.0205 25.2327 42.9873C26.1608 42.6996 26.8349 41.8344 26.8349 40.8116C26.8349 39.9491 26.3475 39.1606 25.576 38.7749L24.0201 37.9968C23.7891 37.8814 23.6433 37.6454 23.6433 37.3873C23.6433 37.0109 23.9484 36.7058 24.3249 36.7058H24.4412C24.8818 36.7058 25.2391 37.0631 25.2391 37.5037C25.2391 37.9443 25.5964 38.3016 26.037 38.3016C26.4776 38.3016 26.8349 37.9443 26.8349 37.5037C26.8349 36.4573 26.1635 35.5678 25.2282 35.2424C25.2354 35.1993 25.2391 35.1551 25.2391 35.11V34.3121Z" fill="#402A32"/>
</svg>
