<svg width="49" height="48" viewBox="0 0 49 48" fill="none" xmlns="http://www.w3.org/2000/svg">
<path d="M1.29995 23.7867C1.29995 36.4818 11.5914 46.7733 24.2866 46.7733C36.9817 46.7733 47.2732 36.4818 47.2732 23.7867C47.2732 11.0915 36.9817 0.800049 24.2866 0.800049C11.5914 0.800049 1.29995 11.0915 1.29995 23.7867Z" fill="#A4AEEB"/>
<path d="M7.04655 23.7866C7.04655 33.308 14.7651 41.0266 24.2865 41.0266C33.808 41.0266 41.5265 33.308 41.5265 23.7866C41.5265 14.2652 33.808 6.54663 24.2865 6.54663C14.7651 6.54663 7.04655 14.2652 7.04655 23.7866Z" fill="#5235A6"/>
<path d="M24.2864 8.46216C25.3444 8.46216 26.202 9.31979 26.202 10.3777V21.871C26.202 22.2748 26.0771 22.6495 25.8637 22.9583L32.1204 29.934C32.8269 30.7214 32.7612 31.9326 31.9735 32.6389C31.186 33.3454 29.975 33.2797 29.2686 32.492L22.8735 25.3621C22.2674 24.6865 22.2297 23.699 22.7287 22.9861C22.5034 22.6719 22.3709 22.2869 22.3709 21.871V10.3777C22.3709 9.31979 23.2284 8.46216 24.2864 8.46216Z" fill="white"/>
<path d="M20.4555 23.7867C20.4555 25.9026 22.1707 27.6178 24.2866 27.6178C26.4025 27.6178 28.1177 25.9026 28.1177 23.7867C28.1177 21.6708 26.4025 19.9556 24.2866 19.9556C22.1707 19.9556 20.4555 21.6708 20.4555 23.7867Z" fill="#FCD53F"/>
</svg>
