<svg width="121" height="120" viewBox="0 0 121 120" fill="none" xmlns="http://www.w3.org/2000/svg">
<path d="M60.3488 113.698C97.5885 113.698 116.198 88.6933 116.198 57.8488C116.198 27.0043 97.5885 2 60.3488 2C23.1088 2 4.5 27.0043 4.5 57.8488C4.5 88.6933 23.1088 113.698 60.3488 113.698Z" fill="#FFB02E"/>
<path d="M60.3485 97.7483C32.4219 97.7483 32.4219 69.8217 32.4219 69.8217H88.2751C88.2751 69.8217 88.2751 97.7483 60.3485 97.7483Z" fill="#BB1D80"/>
<path d="M60.4152 117.696C80.3627 117.696 79.8441 92.9609 80.3627 88.7719C80.7617 85.3808 78.9664 83.6653 77.0115 82.5084C75.0567 81.3514 69.1921 80.2742 60.4152 80.2742C51.6382 80.2742 45.8135 81.3514 43.8188 82.5084C41.824 83.6653 40.0288 85.3808 40.4676 88.7719C40.9862 92.9609 40.4676 117.696 60.4152 117.696Z" fill="#00D26A"/>
<path d="M87.7166 75.5267C88.0756 73.6915 88.2751 71.7766 88.2751 69.8217C69.684 69.8217 43.7522 69.8217 32.4219 69.8217C32.4219 71.7766 32.6213 73.6516 32.9804 75.5267H87.7166Z" fill="#FEFEFE"/>
<path d="M39.4082 17.9581C41.0606 17.9581 42.4003 19.2977 42.4003 20.9502V24.1419C46.9527 25.0659 50.3793 29.0909 50.3793 33.9161V34.9135C50.3793 36.566 49.0396 37.9056 47.3872 37.9056C45.7347 37.9056 44.3951 36.566 44.3951 34.9135V33.9161C44.3951 31.7128 42.609 29.9266 40.4055 29.9266H38.4108C36.2075 29.9266 34.4213 31.7128 34.4213 33.9161V34.7344C34.4213 36.7467 35.9195 38.4438 37.9161 38.6932L41.6427 39.1591C46.634 39.7831 50.3793 44.0259 50.3793 49.0559V49.8742C50.3793 54.6995 46.9527 58.7245 42.4003 59.6485V62.8401C42.4003 64.4925 41.0606 65.8322 39.4082 65.8322C37.7557 65.8322 36.416 64.4925 36.416 62.8401V59.6485C31.8635 58.7245 28.437 54.6995 28.437 49.8742V48.8768C28.437 47.2243 29.7766 45.8847 31.4291 45.8847C33.0816 45.8847 34.4213 47.2243 34.4213 48.8768V49.8742C34.4213 52.0776 36.2075 53.8637 38.4108 53.8637H40.4055C42.609 53.8637 44.3951 52.0776 44.3951 49.8742V49.0559C44.3951 47.0436 42.897 45.3465 40.9002 45.0971L37.1736 44.6311C32.1825 44.0072 28.437 39.7643 28.437 34.7344V33.9161C28.437 29.0909 31.8635 25.0659 36.416 24.1419V20.9502C36.416 19.2977 37.7557 17.9581 39.4082 17.9581Z" fill="#402A32"/>
<path d="M81.298 17.9581C82.9505 17.9581 84.2902 19.2977 84.2902 20.9502V24.1419C88.8426 25.0659 92.2692 29.0909 92.2692 33.9161V34.9135C92.2692 36.566 90.9295 37.9056 89.2771 37.9056C87.6246 37.9056 86.2849 36.566 86.2849 34.9135V33.9161C86.2849 31.7128 84.4988 29.9266 82.2954 29.9266H80.3007C78.0973 29.9266 76.3111 31.7128 76.3111 33.9161V34.7344C76.3111 36.7467 77.8092 38.4438 79.806 38.6932L83.5326 39.1591C88.5238 39.7831 92.2692 44.0259 92.2692 49.0559V49.8742C92.2692 54.6995 88.8426 58.7245 84.2902 59.6485V62.8401C84.2902 64.4925 82.9505 65.8322 81.298 65.8322C79.6456 65.8322 78.3059 64.4925 78.3059 62.8401V59.6485C73.7535 58.7245 70.3269 54.6995 70.3269 49.8742V48.8768C70.3269 47.2243 71.6666 45.8847 73.319 45.8847C74.9715 45.8847 76.3111 47.2243 76.3111 48.8768V49.8742C76.3111 52.0776 78.0973 53.8637 80.3007 53.8637H82.2954C84.4988 53.8637 86.2849 52.0776 86.2849 49.8742V49.0559C86.2849 47.0436 84.7869 45.3465 82.7901 45.0971L79.0635 44.6311C74.0722 44.0072 70.3269 39.7643 70.3269 34.7344V33.9161C70.3269 29.0909 73.7535 25.0659 78.3059 24.1419V20.9502C78.3059 19.2977 79.6456 17.9581 81.298 17.9581Z" fill="#402A32"/>
<path d="M62.3479 85.7798C62.3479 84.6783 61.4546 83.785 60.3531 83.785C59.2516 83.785 58.3583 84.6783 58.3583 85.7798V87.7745C58.3583 87.8607 58.3639 87.9457 58.3743 88.0286C56.054 88.748 54.3688 90.9111 54.3688 93.4679C54.3688 95.6243 55.5872 97.5955 57.5162 98.5598L61.4059 100.505C61.9832 100.793 62.3479 101.384 62.3479 102.029C62.3479 102.97 61.5851 103.733 60.6439 103.733H60.3531C59.2516 103.733 58.3583 102.839 58.3583 101.738C58.3583 100.636 57.4651 99.7431 56.3636 99.7431C55.2621 99.7431 54.3688 100.636 54.3688 101.738C54.3688 104.354 56.0472 106.577 58.3855 107.391C58.3675 107.499 58.3583 107.609 58.3583 107.722V109.717C58.3583 110.818 59.2516 111.712 60.3531 111.712C61.4546 111.712 62.3479 110.818 62.3479 109.717V107.722C62.3479 107.636 62.3423 107.551 62.3319 107.468C64.6522 106.749 66.3374 104.586 66.3374 102.029C66.3374 99.8723 65.119 97.9011 63.19 96.9368L59.3003 94.9915C58.723 94.7031 58.3583 94.113 58.3583 93.4679C58.3583 92.5268 59.1211 91.764 60.0623 91.764H60.3531C61.4546 91.764 62.3479 92.6573 62.3479 93.7588C62.3479 94.8603 63.2411 95.7535 64.3426 95.7535C65.4441 95.7535 66.3374 94.8603 66.3374 93.7588C66.3374 91.1429 64.659 88.9191 62.3207 88.1056C62.3387 87.9979 62.3479 87.8874 62.3479 87.7745V85.7798Z" fill="#402A32"/>
</svg>
