<svg width="113" height="44" viewBox="0 0 113 44" fill="none" xmlns="http://www.w3.org/2000/svg">
<g clip-path="url(#clip0_152_3975)">
<path fill-rule="evenodd" clip-rule="evenodd" d="M74.3132 26.8194C69.0883 34.2877 58.0711 40.9516 49.4401 40.9516C40.8091 40.9516 35.6419 35.2872 35.1394 28.347H34.5662C33.7529 37.355 38.6663 43.8885 47.7685 43.8885C56.8706 43.8885 68.8094 36.4329 74.5962 26.8194H74.3132ZM63.7939 0.0458984C72.5767 0.0458984 77.895 6.68844 76.9754 15.8134L76.4324 15.7956C75.9969 8.86929 70.3158 3.30906 62.0965 3.30906C54.2399 3.30906 46.3722 7.8248 40.9593 13.7867H40.2515C46.2407 5.72111 55.2947 0.0458984 63.7939 0.0458984Z" fill="white"/>
<path fill-rule="evenodd" clip-rule="evenodd" d="M76.3948 18.3333C78.0224 18.3333 79.3421 19.6468 79.3421 21.2666C79.3421 22.8864 78.0224 24.1999 76.3948 24.1999C74.7678 24.1999 73.4474 22.8864 73.4474 21.2666C73.4474 19.6468 74.7678 18.3333 76.3948 18.3333Z" fill="#FF6E27"/>
<path fill-rule="evenodd" clip-rule="evenodd" d="M104.219 18.5545L104.645 16.1258H106.638L107.121 13.967L110.797 12.9841L110.101 16.1258H112.5L112.074 18.5545H109.54L108.94 21.3493C108.747 22.2489 108.65 22.8272 108.65 23.0843C108.65 23.8296 109.03 24.2022 109.791 24.2022C110.011 24.2022 110.385 24.1058 110.914 23.9129L110.527 26.2069C109.714 26.3354 108.992 26.3995 108.36 26.3995C107.405 26.3995 106.65 26.1682 106.095 25.7056C105.476 25.1917 105.167 24.4335 105.167 23.4311C105.167 23.0199 105.27 22.3325 105.476 21.3687L106.077 18.5545H104.219ZM96.5216 20.1928H100.798C100.798 18.8694 100.231 18.2076 99.0954 18.2076C98.399 18.2076 97.8118 18.4196 97.3343 18.8438C96.9349 19.1906 96.6638 19.6405 96.5216 20.1928ZM102.172 23.3927L101.727 25.8406C100.489 26.2131 99.3149 26.3995 98.2053 26.3995C96.5798 26.3995 95.2962 25.9499 94.3545 25.0502C93.4652 24.215 93.0201 23.1357 93.0201 21.8121C93.0201 20.3728 93.4652 19.0943 94.3545 17.9761C95.4642 16.5883 97.0315 15.8945 99.0571 15.8945C100.463 15.8945 101.565 16.2415 102.365 16.9355C103.255 17.6935 103.7 18.805 103.7 20.27C103.7 20.7841 103.617 21.4137 103.449 22.1589H96.3094C96.3609 23.444 97.2636 24.0865 99.018 24.0865C100.153 24.0865 101.204 23.855 102.172 23.3927ZM80.6213 26.1682L82.1885 18.7471C82.3816 17.8222 82.5238 16.9483 82.6137 16.1258H85.8455L85.5743 17.7641H85.6134C86.7356 16.5178 88.0317 15.8945 89.5024 15.8945C90.4824 15.8945 91.2495 16.219 91.8051 16.8681C92.3592 17.5167 92.6369 18.3488 92.6369 19.3639C92.6369 19.8653 92.5463 20.5719 92.3658 21.4842L91.4366 26.1682H87.8379L88.8054 21.465C88.9601 20.7069 89.0375 20.1992 89.0375 19.9425C89.0375 19.1584 88.5865 18.7731 87.6832 18.7859C86.3421 18.8114 85.4778 19.7301 85.091 21.5421L84.1036 26.1682H80.6213ZM64.4642 23.0846C64.4642 23.3416 64.5738 23.5728 64.7933 23.7784C65.0124 23.9841 65.296 24.0868 65.6447 24.0868C66.367 24.0868 66.9539 23.8686 67.4053 23.4317C67.8567 22.9947 68.1469 22.4228 68.276 21.7161C68.16 21.6903 67.8504 21.6711 67.3472 21.6582C66.5089 21.6327 65.8187 21.7544 65.2767 22.0244C64.7352 22.2943 64.4642 22.6479 64.4642 23.0846ZM67.8115 26.1686L67.9662 24.7615L67.9278 24.7231V24.7615C67.2312 25.8539 66.1024 26.3999 64.5417 26.3999C62.2973 26.3999 61.1749 25.4298 61.1749 23.4894C61.1749 22.3072 61.7169 21.3818 62.8004 20.7136C63.7937 20.1097 65.1026 19.8077 66.7281 19.8077C67.1794 19.8077 67.8052 19.8399 68.6047 19.904C68.6309 19.8144 68.6435 19.6792 68.6435 19.4994C68.6435 19.1268 68.4727 18.8182 68.131 18.5742C67.7889 18.3299 67.3408 18.208 66.7862 18.208C65.6251 18.208 64.5353 18.4712 63.5161 18.9983L63.8645 16.4731C64.9995 16.0875 66.2313 15.8949 67.5599 15.8949C68.863 15.8949 69.8947 16.1518 70.6558 16.6659C71.5074 17.257 71.9331 18.1371 71.9331 19.3066C71.9331 19.8463 71.7716 20.8099 71.4493 22.1977C71.0494 23.8686 70.7848 25.1922 70.6558 26.1686H67.8115ZM61.0434 23.4121L60.5401 26.0144C59.7661 26.2714 58.7729 26.3999 57.5605 26.3999C56.1286 26.3999 54.9677 25.9503 54.0776 25.0508C53.2263 24.1895 52.8008 23.1101 52.8008 21.8124C52.8008 20.1419 53.4072 18.7379 54.6197 17.6007C55.8321 16.4633 57.3926 15.8949 59.3016 15.8949C60.3337 15.8949 61.3915 16.1197 62.4751 16.5696L61.7206 18.9789C60.9337 18.6191 60.1854 18.4391 59.4761 18.4391C58.5603 18.4391 57.8249 18.7153 57.2704 19.2681C56.6898 19.8592 56.3995 20.6624 56.3995 21.6776C56.3995 22.2943 56.6189 22.8116 57.0575 23.2293C57.4961 23.6467 58.0765 23.8557 58.7989 23.8557C59.5727 23.8557 60.3208 23.7075 61.0434 23.4121ZM47.2318 26.1686L49.3215 16.1262H52.8432L50.7533 26.1686H47.2318ZM41.257 16.1262H44.4881L44.1012 18.1888H44.1398C44.4495 17.5461 44.8621 17.0192 45.3781 16.608C45.9586 16.1326 46.5841 15.8949 47.2549 15.8949C47.8353 15.8949 48.3254 15.9781 48.7253 16.1455L47.9322 19.2102C47.571 18.9274 47.0358 18.7862 46.3261 18.7862C44.9848 18.7862 44.1204 19.7048 43.7335 21.5426L42.7468 26.1686H39.2639L40.8311 18.7476C41.0246 17.8222 41.1665 16.9487 41.257 16.1262ZM32.4181 20.1932H36.6942C36.6942 18.8698 36.1265 18.208 34.9916 18.208C34.2948 18.208 33.7081 18.4199 33.2307 18.8438C32.8309 19.1909 32.5599 19.6408 32.4181 20.1932ZM38.068 23.3931L37.623 25.8409C36.3846 26.2135 35.2109 26.3999 34.1015 26.3999C32.4761 26.3999 31.1926 25.9503 30.2509 25.0508C29.3611 24.2153 28.916 23.1359 28.916 21.8124C28.916 20.3732 29.3611 19.0943 30.2509 17.9764C31.3602 16.5886 32.9275 15.8949 34.9527 15.8949C36.3588 15.8949 37.4616 16.2419 38.2613 16.9356C39.1517 17.694 39.5965 18.8055 39.5965 20.2704C39.5965 20.7845 39.5126 21.414 39.3448 22.1592H32.2053C32.2568 23.4443 33.1597 24.0868 34.9142 24.0868C36.0492 24.0868 37.1005 23.8557 38.068 23.3931ZM11.1576 26.1686L12.7247 18.7476C12.9182 17.8222 13.0602 16.9487 13.1506 16.1262H16.2462L15.8593 17.9573L15.8979 17.938C16.8138 16.5758 18.0007 15.8949 19.4581 15.8949C20.0901 15.8949 20.6449 16.0619 21.1221 16.3959C21.6509 16.7685 21.98 17.2826 22.1089 17.938C23.0249 16.5758 24.2243 15.8949 25.7077 15.8949C26.5849 15.8949 27.3008 16.1132 27.8554 16.5501C28.5134 17.077 28.8423 17.8546 28.8423 18.8824C28.8423 19.6408 28.7647 20.3925 28.6101 21.1377L27.5653 26.1686H24.0826L25.0887 21.2918C25.2177 20.6624 25.2821 20.174 25.2821 19.827C25.2821 19.133 24.908 18.7862 24.1599 18.7862C23.5278 18.7862 23.0312 19.1074 22.6701 19.7501C22.4507 20.1355 22.2573 20.733 22.0895 21.5426L21.1028 26.1686H17.6201L18.6262 21.2918C18.7551 20.6624 18.8197 20.174 18.8197 19.827C18.8197 19.133 18.4456 18.7862 17.6974 18.7862C17.0654 18.7862 16.5687 19.1074 16.2076 19.7501C15.9883 20.1355 15.7949 20.733 15.6272 21.5426L14.6404 26.1686H11.1576ZM3.78928 23.0846C3.78928 23.3416 3.89898 23.5728 4.11826 23.7784C4.33755 23.9841 4.62126 24.0868 4.96952 24.0868C5.69203 24.0868 6.27885 23.8686 6.7303 23.4317C7.18176 22.9947 7.47197 22.4228 7.60106 21.7161C7.48486 21.6903 7.17526 21.6711 6.67215 21.6582C5.83378 21.6327 5.14376 21.7544 4.60188 22.0244C4.06022 22.2943 3.78928 22.6479 3.78928 23.0846ZM49.6441 15.3064L50.201 12.4666H53.5201L52.9631 15.3064H49.6441ZM7.1366 26.1686L7.29146 24.7615L7.2528 24.7231V24.7615C6.55617 25.8539 5.42759 26.3999 3.86682 26.3999C1.62231 26.3999 0.5 25.4298 0.5 23.4894C0.5 22.3072 1.04177 21.3818 2.1252 20.7136C3.11854 20.1097 4.42786 19.8077 6.05306 19.8077C6.50474 19.8077 7.13022 19.8399 7.92995 19.904C7.95581 19.8144 7.96871 19.6792 7.96871 19.4994C7.96871 19.1268 7.79782 18.8182 7.45595 18.5742C7.11408 18.3299 6.66587 18.208 6.1111 18.208C4.95036 18.208 3.86032 18.4712 2.84109 18.9983L3.18958 16.4731C4.32455 16.0875 5.55656 15.8949 6.88516 15.8949C8.18799 15.8949 9.22001 16.1518 9.98095 16.6659C10.8323 17.257 11.258 18.1371 11.258 19.3066C11.258 19.8463 11.0966 20.8099 10.7742 22.1977C10.3744 23.8686 10.11 25.1922 9.98095 26.1686H7.1366Z" fill="white"/>
</g>
<defs>
<clipPath id="clip0_152_3975">
<rect width="112" height="44" fill="white" transform="translate(0.5)"/>
</clipPath>
</defs>
</svg>
