<svg width="49" height="48" viewBox="0 0 49 48" fill="none" xmlns="http://www.w3.org/2000/svg">
<path fill-rule="evenodd" clip-rule="evenodd" d="M42.4601 29.2977C36.955 37.485 25.3247 44.7893 16.253 44.7893C7.18132 44.7893 1.67629 38.5284 1.13354 30.9833H0.590789C-0.262104 40.8562 4.93279 48 14.5472 48C24.1616 48 36.7224 39.8127 42.8477 29.2977H42.4601ZM31.3725 0C40.6767 0 46.2593 7.30435 45.2513 17.2575H44.7086C44.2434 9.71238 38.2731 3.61204 29.5891 3.61204C20.9051 3.61204 12.9965 8.58863 7.25886 15.0903H6.4835C12.8414 6.1806 22.4558 0 31.3725 0Z" fill="#808080"/>
<path fill-rule="evenodd" clip-rule="evenodd" d="M45.3985 19.9866C47.1043 19.9866 48.5 21.4314 48.5 23.1973C48.5 24.9632 47.1043 26.408 45.3985 26.408C43.6928 26.408 42.2971 24.9632 42.2971 23.1973C42.2971 21.4314 43.6928 19.9866 45.3985 19.9866Z" fill="#E45A00"/>
<path d="M32.8382 10.7559C30.9773 9.39138 28.4962 8.66898 25.2397 8.58871C21.9832 8.50844 18.9593 8.99005 16.168 9.95326L15.2376 16.5352C17.7963 15.1706 20.4325 14.5285 23.3013 14.6088C24.6969 14.6088 25.7824 14.9298 26.5578 15.6523C27.4107 16.2944 27.7984 17.0971 27.7984 18.0603C27.7984 18.5419 27.7208 18.863 27.7208 19.1038C25.7824 18.9432 24.2317 18.7827 23.1462 18.7827C19.1144 18.7024 15.9354 19.4248 13.4543 21.0302C10.7405 22.7158 9.42241 25.1238 9.34488 28.2543C9.26734 33.3111 11.9811 35.8797 17.4861 36.0402C21.2854 36.1205 24.1542 34.6757 25.86 31.8663V31.786L25.9375 31.8663L25.4723 35.5586L32.4505 35.6389C32.8382 33.0703 33.536 29.6188 34.544 25.2844C35.3969 21.6723 35.7845 19.1038 35.8621 17.7392C35.8621 14.6088 34.8541 12.281 32.8382 10.7559ZM24.5419 28.3345C23.3788 29.4583 21.9832 30.0201 20.1999 30.0201C19.347 30.0201 18.6492 29.6991 18.1064 29.2175C17.5637 28.6556 17.3311 28.0937 17.3311 27.3713C17.3311 26.2476 18.0289 25.2844 19.347 24.6422C20.6651 23.9198 22.3709 23.679 24.4643 23.7593C25.7049 23.8395 26.4803 23.8395 26.7129 23.9198C26.4027 25.6857 25.7049 27.2108 24.5419 28.3345Z" fill="#005994"/>
</svg>
