<svg width="94" height="37" viewBox="0 0 94 37" fill="none" xmlns="http://www.w3.org/2000/svg">
<g clip-path="url(#clip0_113_383)">
<path fill-rule="evenodd" clip-rule="evenodd" d="M60.9432 22.5524C56.6039 28.8325 47.4533 34.4363 40.2848 34.4363C33.1162 34.4363 28.8244 29.6731 28.4071 23.837H27.9309C27.2555 31.4119 31.3364 36.906 38.8963 36.906C46.4563 36.906 56.3723 30.6365 61.1784 22.5524H60.9432ZM52.2065 0.0383301C59.5012 0.0383301 63.9183 5.62411 63.1544 13.2974L62.7035 13.2824C62.3419 7.45801 57.6234 2.78236 50.7967 2.78236C44.2713 2.78236 37.7366 6.5797 33.2408 11.5931H32.653C37.6274 4.81067 45.1474 0.0383301 52.2065 0.0383301Z" fill="#808080"/>
<path fill-rule="evenodd" clip-rule="evenodd" d="M63.2399 15.4167C64.5882 15.4167 65.6815 16.5213 65.6815 17.8834C65.6815 19.2456 64.5882 20.3501 63.2399 20.3501C61.8919 20.3501 60.7983 19.2456 60.7983 17.8834C60.7983 16.5213 61.8919 15.4167 63.2399 15.4167Z" fill="#E45A00"/>
<path fill-rule="evenodd" clip-rule="evenodd" d="M86.7791 15.8957L87.1627 13.7985L88.8219 13.8234L89.2508 11.9606L92.3231 11.1556L91.7052 13.8665L93.7026 13.8964L93.319 15.9936L91.2089 15.962L90.6756 18.3739C90.5037 19.1501 90.4163 19.6495 90.4132 19.8721C90.4042 20.5172 90.7164 20.8445 91.3501 20.854C91.5326 20.8568 91.8452 20.778 92.288 20.6176L91.9381 22.5985C91.2598 22.6996 90.6577 22.7462 90.1315 22.7384C89.3368 22.7265 88.7113 22.5168 88.2551 22.1094C87.7458 21.6569 87.4974 20.9966 87.5094 20.129C87.5144 19.7729 87.6088 19.1792 87.792 18.3475L88.3256 15.9189L86.7791 15.8957ZM80.3512 17.2179L83.9112 17.2712C83.9272 16.1256 83.4627 15.5456 82.5179 15.5314C81.9379 15.5227 81.4465 15.699 81.0439 16.0602C80.7071 16.3555 80.4762 16.7415 80.3512 17.2179ZM85.0162 20.0583L84.6161 22.1718C83.5808 22.4789 82.6014 22.6256 81.6779 22.6118C80.3247 22.5916 79.2615 22.1863 78.4884 21.3957C77.7576 20.6617 77.4002 19.7217 77.4162 18.576C77.4335 17.33 77.8195 16.2289 78.5738 15.2719C79.5141 14.0845 80.8274 13.5034 82.5135 13.5286C83.684 13.5462 84.5979 13.8603 85.2552 14.471C85.987 15.1383 86.3441 16.1061 86.3264 17.3742C86.3202 17.8192 86.2427 18.3631 86.0944 19.0062L80.1503 18.9172C80.1779 20.0303 80.9218 20.5978 82.3823 20.6196C83.3271 20.6337 84.2052 20.4464 85.0162 20.0583ZM67.0411 22.1925L68.4354 15.7878C68.6077 14.9896 68.7365 14.2348 68.8215 13.524L71.5118 13.5643L71.2664 14.979L71.2987 14.9795C72.2481 13.9146 73.3348 13.3913 74.559 13.4096C75.375 13.4218 76.01 13.7122 76.4642 14.281C76.918 14.8495 77.1389 15.5733 77.1267 16.452C77.1206 16.886 77.037 17.4965 76.8755 18.284L76.0456 22.3273L73.0494 22.2823L73.9118 18.2231C74.0497 17.5687 74.1202 17.1301 74.1234 16.908C74.1328 16.2292 73.7618 15.8901 73.0098 15.8899C71.8927 15.8952 71.162 16.6798 70.8181 18.2435L69.9405 22.2359L67.0411 22.1925ZM53.6273 19.3216C53.6241 19.5442 53.7126 19.7457 53.8929 19.9265C54.0729 20.1073 54.3076 20.1997 54.5978 20.2041C55.1992 20.213 55.6905 20.0315 56.0716 19.6588C56.4527 19.2862 56.7012 18.7947 56.8173 18.1845C56.721 18.1608 56.4634 18.1403 56.0447 18.1228C55.3471 18.0903 54.7709 18.1871 54.3165 18.4141C53.8624 18.641 53.6325 18.9437 53.6273 19.3216ZM56.3768 22.0331L56.5225 20.817L56.491 20.7832L56.4906 20.8165C55.8975 21.7534 54.9511 22.2121 53.6517 22.1926C51.7832 22.1646 50.8606 21.3108 50.884 19.6312C50.8983 18.6078 51.3606 17.8135 52.2707 17.2487C53.105 16.7382 54.1984 16.493 55.5516 16.5133C55.9273 16.5189 56.448 16.5545 57.1128 16.6201C57.1356 16.5428 57.1478 16.4259 57.15 16.2702C57.1544 15.9477 57.016 15.6784 56.7344 15.463C56.4526 15.2472 56.081 15.1361 55.6193 15.1291C54.6527 15.1146 53.7422 15.329 52.8872 15.7725L53.2078 13.5911C54.1574 13.2714 55.1852 13.1199 56.2914 13.1364C57.3762 13.1527 58.232 13.388 58.8594 13.8424C59.5613 14.3648 59.9051 15.132 59.8909 16.1443C59.8845 16.6115 59.7385 17.4437 59.4533 18.6411C59.1001 20.0825 58.8639 21.225 58.7447 22.0686L56.3768 22.0331ZM50.7753 19.5626L50.3251 21.8091C49.6775 22.0219 48.8491 22.1208 47.8396 22.1056C46.6475 22.0878 45.6865 21.684 44.9564 20.8943C44.2581 20.1381 43.9167 19.1985 43.9324 18.0751C43.9525 16.629 44.4743 15.4213 45.4975 14.4518C46.5206 13.4824 47.8268 13.0098 49.4161 13.0335C50.2753 13.0464 51.1532 13.2542 52.0498 13.6571L51.3926 15.7334C50.7418 15.4122 50.1211 15.247 49.5305 15.2381C48.7682 15.2267 48.1526 15.4567 47.6842 15.9283C47.1938 16.4328 46.9424 17.1245 46.9301 18.0032C46.9226 18.5372 47.0991 18.9876 47.4592 19.3547C47.8192 19.7214 48.3001 19.9096 48.9013 19.9187C49.5456 19.9282 50.1703 19.8094 50.7753 19.5626ZM39.2436 21.7767L41.1046 13.1094L44.0364 13.1533L42.1753 21.8206L39.2436 21.7767ZM34.3906 13.0089L37.0805 13.0492L36.7336 14.8299L36.7656 14.8304C37.0313 14.2779 37.3811 13.8269 37.8157 13.4773C38.3048 13.0731 38.8283 12.875 39.3868 12.8834C39.87 12.8907 40.277 12.969 40.608 13.1187L39.9107 15.7618C39.6133 15.5125 39.1694 15.3837 38.5787 15.3748C37.4619 15.3581 36.7312 16.1425 36.387 17.7286L35.5095 21.7208L32.6099 21.6774L34.0044 15.2729C34.1766 14.4743 34.3052 13.7198 34.3906 13.0089ZM26.9828 16.4195L30.5428 16.4728C30.5588 15.327 30.0941 14.7471 29.1492 14.733C28.5692 14.7243 28.0782 14.9005 27.6755 15.2614C27.3385 15.5569 27.1075 15.943 26.9828 16.4195ZM31.6478 19.2598L31.2478 21.3732C30.2123 21.6804 29.2328 21.8271 28.3094 21.8132C26.9562 21.793 25.893 21.3878 25.1199 20.5974C24.3891 19.8631 24.0316 18.9232 24.0477 17.7775C24.065 16.5316 24.4511 15.4301 25.2053 14.4735C26.1456 13.286 27.4588 12.7048 29.1449 12.7301C30.3154 12.7477 31.2293 13.0618 31.8868 13.6723C32.6188 14.3399 32.9758 15.3076 32.9581 16.5756C32.9519 17.0207 32.8744 17.5646 32.7257 18.2076L26.7819 18.1186C26.8092 19.2317 27.5533 19.7992 29.0138 19.8211C29.9587 19.8353 30.8368 19.6483 31.6478 19.2598ZM9.21058 21.3271L10.6049 14.9226C10.7772 14.124 10.9059 13.3695 10.9911 12.6587L13.5683 12.6972L13.2241 14.2776L13.2565 14.2614C14.0354 13.0935 15.0317 12.5189 16.2451 12.5371C16.7713 12.5449 17.2311 12.6964 17.6244 12.9915C18.0601 13.3206 18.3279 13.7697 18.4273 14.3387C19.2063 13.171 20.2131 12.5964 21.4481 12.6149C22.1784 12.6259 22.7718 12.8238 23.2283 13.2089C23.7696 13.6733 24.0341 14.3505 24.0216 15.2401C24.0124 15.8966 23.9389 16.5465 23.8012 17.1896L22.8706 21.5316L19.971 21.4881L20.8676 17.2791C20.9825 16.7359 21.0421 16.3138 21.0463 16.0135C21.0547 15.4128 20.7474 15.1078 20.1246 15.0986C19.5983 15.0906 19.181 15.3625 18.8726 15.9144C18.6854 16.2453 18.5171 16.7601 18.3676 17.4589L17.4903 21.451L14.5908 21.4076L15.4873 17.1986C15.6023 16.6554 15.6619 16.2333 15.6661 15.933C15.6745 15.3322 15.3671 15.0273 14.7444 15.018C14.2182 15.0101 13.8008 15.282 13.4923 15.8339C13.3052 16.1648 13.1369 16.6795 12.9876 17.3783L12.1101 21.3705L9.21058 21.3271ZM3.11347 18.5656C3.1104 18.7882 3.19893 18.9896 3.379 19.1704C3.55906 19.3512 3.79407 19.4436 4.08404 19.4479C4.68552 19.4569 5.17663 19.2754 5.55784 18.9027C5.93895 18.53 6.18749 18.0387 6.30346 17.4284C6.20699 17.4046 5.9495 17.3842 5.53078 17.3668C4.83321 17.3342 4.25719 17.4311 3.80275 17.658C3.34867 17.8849 3.11879 18.1875 3.11347 18.5656ZM41.383 12.4038L41.881 9.95239L44.6441 9.99376L44.1461 12.4452L41.383 12.4038ZM5.86301 21.277L6.00892 20.0609L5.97711 20.0271L5.97674 20.0604C5.38356 20.9974 4.43735 21.456 3.13801 21.4365C1.26938 21.4085 0.346678 20.5547 0.370189 18.875C0.384463 17.8518 0.846653 17.0574 1.75676 16.4925C2.59101 15.9821 3.68473 15.7369 5.0378 15.7572C5.4137 15.7628 5.9341 15.7984 6.59912 15.864C6.6217 15.7867 6.63401 15.6698 6.63625 15.5141C6.64073 15.1915 6.50218 14.9223 6.22061 14.7069C5.93886 14.4912 5.56717 14.3799 5.10544 14.3731C4.13899 14.3586 3.22832 14.5728 2.37345 15.0164L2.69401 12.8349C3.64358 12.5152 4.67162 12.3638 5.77774 12.3803C6.86231 12.3966 7.71839 12.6319 8.34581 13.0864C9.0474 13.6086 9.3912 14.376 9.37702 15.3883C9.37048 15.8555 9.22457 16.6876 8.93936 17.885C8.58642 19.3265 8.3502 20.4689 8.23106 21.3124L5.86301 21.277Z" fill="#005994"/>
</g>
<defs>
<clipPath id="clip0_113_383">
<rect width="94" height="37" fill="white"/>
</clipPath>
</defs>
</svg>
